<svg xmlns="http://www.w3.org/2000/svg" xmlns:xlink="http://www.w3.org/1999/xlink" width="500" zoomAndPan="magnify" viewBox="0 0 375 374.999991" height="500" preserveAspectRatio="xMidYMid meet" version="1.0"><defs><g/><clipPath id="id1"><path d="M 125 170.644531 L 144 170.644531 L 144 189 L 125 189 Z M 125 170.644531 " clip-rule="nonzero"/></clipPath><clipPath id="id2"><path d="M 117.222656 189 L 151.539062 189 L 151.539062 204.957031 L 117.222656 204.957031 Z M 117.222656 189 " clip-rule="nonzero"/></clipPath></defs><rect x="-37.5" width="450" fill="#000000" y="-37.499999" height="449.999989" fill-opacity="1"/><rect x="-37.5" width="450" fill="#ffffff" y="-37.499999" height="449.999989" fill-opacity="1"/><rect x="-37.5" width="450" fill="#000000" y="-37.499999" height="449.999989" fill-opacity="1"/><path stroke-linecap="round" transform="matrix(0.00000000000000012, -1.956168, 1.960788, 0.00000000000000012, 158.15938, 216.144831)" fill="none" stroke-linejoin="miter" d="M 0.499375 0.000396032 L 21.055351 0.000396032 " stroke="#ffffff" stroke-width="1" stroke-opacity="1" stroke-miterlimit="4"/><path fill="#ffffff" d="M 158.050781 167.476562 C 157.238281 167.476562 156.578125 168.136719 156.578125 168.949219 C 156.578125 169.757812 157.238281 170.417969 158.050781 170.417969 C 158.863281 170.417969 159.519531 169.757812 159.519531 168.949219 C 159.519531 168.136719 158.863281 167.476562 158.050781 167.476562 " fill-opacity="1" fill-rule="nonzero"/><g fill="#ffffff" fill-opacity="1"><g transform="translate(102.573564, 188.907645)"><g><path d="M 12.476562 -26.507812 L 3.289062 -26.507812 L 3.289062 0 L 5.65625 0 L 5.65625 -11.945312 L 12.476562 -11.945312 C 14.492188 -11.945312 16.222656 -12.652344 17.636719 -14.066406 C 19.050781 -15.480469 19.792969 -17.179688 19.792969 -19.191406 C 19.792969 -21.207031 19.050781 -22.941406 17.636719 -24.351562 C 16.222656 -25.765625 14.492188 -26.507812 12.476562 -26.507812 Z M 12.265625 -14.246094 L 5.65625 -14.246094 L 5.65625 -24.210938 L 12.265625 -24.210938 C 13.679688 -24.210938 14.917969 -23.71875 15.90625 -22.796875 C 16.894531 -21.84375 17.390625 -20.640625 17.390625 -19.191406 C 17.390625 -17.707031 16.894531 -16.507812 15.90625 -15.585938 C 14.917969 -14.667969 13.714844 -14.246094 12.265625 -14.246094 Z M 12.265625 -14.246094 "/></g></g></g><g fill="#ffffff" fill-opacity="1"><g transform="translate(123.178561, 188.907645)"><g><path d="M 11.167969 0.351562 C 13.714844 0.351562 15.871094 -0.53125 17.671875 -2.332031 C 19.441406 -4.101562 20.359375 -6.292969 20.359375 -8.835938 C 20.359375 -11.382812 19.441406 -13.539062 17.671875 -15.339844 C 15.871094 -17.109375 13.714844 -18.027344 11.167969 -18.027344 C 8.625 -18.027344 6.46875 -17.109375 4.664062 -15.339844 C 2.863281 -13.539062 1.980469 -11.382812 1.980469 -8.835938 C 1.980469 -6.292969 2.863281 -4.101562 4.664062 -2.332031 C 6.46875 -0.53125 8.625 0.351562 11.167969 0.351562 Z M 11.167969 -1.945312 C 9.261719 -1.945312 7.632812 -2.617188 6.292969 -3.957031 C 4.949219 -5.300781 4.3125 -6.929688 4.3125 -8.835938 C 4.3125 -10.746094 4.949219 -12.371094 6.292969 -13.714844 C 7.632812 -15.058594 9.261719 -15.730469 11.167969 -15.730469 C 13.078125 -15.730469 14.703125 -15.058594 16.046875 -13.714844 C 17.390625 -12.371094 18.0625 -10.746094 18.0625 -8.835938 C 18.0625 -6.929688 17.390625 -5.300781 16.046875 -3.957031 C 14.703125 -2.617188 13.078125 -1.945312 11.167969 -1.945312 Z M 11.167969 -1.945312 "/></g></g></g><g fill="#ffffff" fill-opacity="1"><g transform="translate(145.550709, 188.907645)"><g><path d="M 3.289062 0 L 5.585938 0 L 5.585938 -26.507812 L 3.289062 -26.507812 Z M 3.289062 0 "/></g></g></g><g fill="#ffffff" fill-opacity="1"><g transform="translate(161.658613, 214.342954)"><g><path d="M 21.417969 0 L 24.035156 0 L 13.394531 -26.507812 L 10.746094 -26.507812 L 0.105469 0 L 2.722656 0 L 5.195312 -6.328125 L 18.945312 -6.328125 Z M 6.113281 -8.625 L 12.089844 -23.753906 L 18.027344 -8.625 Z M 6.113281 -8.625 "/></g></g></g><g fill="#ffffff" fill-opacity="1"><g transform="translate(185.797913, 214.342954)"><g><path d="M 7.5625 0.351562 C 9.121094 0.351562 10.425781 -0.105469 11.488281 -1.058594 C 12.546875 -1.980469 13.113281 -3.179688 13.113281 -4.628906 C 13.113281 -5.371094 12.972656 -6.042969 12.6875 -6.644531 C 12.40625 -7.210938 12.019531 -7.742188 11.453125 -8.164062 C 10.886719 -8.589844 10.390625 -8.90625 9.96875 -9.121094 C 9.507812 -9.332031 8.90625 -9.613281 8.164062 -9.96875 C 7.457031 -10.25 6.964844 -10.460938 6.644531 -10.605469 C 6.328125 -10.746094 5.972656 -10.957031 5.621094 -11.238281 C 5.265625 -11.488281 5.019531 -11.769531 4.878906 -12.089844 C 4.738281 -12.371094 4.664062 -12.761719 4.664062 -13.183594 C 4.664062 -14.03125 4.914062 -14.703125 5.480469 -15.164062 C 6.007812 -15.621094 6.679688 -15.871094 7.527344 -15.871094 C 8.800781 -15.871094 9.753906 -15.304688 10.320312 -14.210938 L 12.371094 -15.269531 C 11.980469 -16.046875 11.347656 -16.71875 10.496094 -17.25 C 9.613281 -17.742188 8.625 -18.027344 7.5625 -18.027344 C 6.148438 -18.027344 4.914062 -17.566406 3.886719 -16.71875 C 2.828125 -15.835938 2.332031 -14.632812 2.332031 -13.113281 C 2.332031 -11.769531 2.722656 -10.710938 3.570312 -9.933594 C 4.382812 -9.15625 5.621094 -8.414062 7.316406 -7.777344 C 8.554688 -7.28125 9.4375 -6.820312 9.96875 -6.398438 C 10.496094 -5.972656 10.78125 -5.40625 10.78125 -4.664062 C 10.78125 -3.78125 10.460938 -3.074219 9.863281 -2.542969 C 9.261719 -2.015625 8.449219 -1.765625 7.457031 -1.765625 C 5.65625 -1.765625 4.417969 -2.542969 3.746094 -4.101562 L 1.519531 -3.394531 C 1.839844 -2.332031 2.582031 -1.449219 3.746094 -0.742188 C 4.914062 0 6.1875 0.351562 7.5625 0.351562 Z M 7.5625 0.351562 "/></g></g></g><g fill="#ffffff" fill-opacity="1"><g transform="translate(200.323904, 214.342954)"><g><path d="M 20.359375 -9.046875 C 20.253906 -11.59375 19.335938 -13.714844 17.566406 -15.445312 C 15.800781 -17.144531 13.679688 -18.027344 11.167969 -18.027344 C 8.625 -18.027344 6.46875 -17.109375 4.664062 -15.339844 C 2.863281 -13.539062 1.980469 -11.382812 1.980469 -8.835938 C 1.980469 -6.292969 2.863281 -4.101562 4.664062 -2.332031 C 6.46875 -0.53125 8.625 0.351562 11.167969 0.351562 C 12.796875 0.351562 14.316406 -0.0351562 15.695312 -0.847656 C 17.070312 -1.625 18.167969 -2.722656 18.980469 -4.101562 L 16.859375 -5.019531 C 16.222656 -4.03125 15.375 -3.289062 14.386719 -2.757812 C 13.394531 -2.191406 12.300781 -1.945312 11.167969 -1.945312 C 9.332031 -1.945312 7.742188 -2.582031 6.398438 -3.851562 C 5.054688 -5.125 4.382812 -6.679688 4.3125 -8.554688 L 20.324219 -8.554688 Z M 11.167969 -15.730469 C 12.722656 -15.730469 14.136719 -15.234375 15.339844 -14.28125 C 16.542969 -13.324219 17.320312 -12.125 17.742188 -10.675781 L 4.558594 -10.675781 C 4.949219 -12.160156 5.761719 -13.359375 7 -14.316406 C 8.199219 -15.234375 9.613281 -15.730469 11.167969 -15.730469 Z M 11.167969 -15.730469 "/></g></g></g><g fill="#ffffff" fill-opacity="1"><g transform="translate(222.660711, 214.342954)"><g><path d="M 7.5625 0.351562 C 9.121094 0.351562 10.425781 -0.105469 11.488281 -1.058594 C 12.546875 -1.980469 13.113281 -3.179688 13.113281 -4.628906 C 13.113281 -5.371094 12.972656 -6.042969 12.6875 -6.644531 C 12.40625 -7.210938 12.019531 -7.742188 11.453125 -8.164062 C 10.886719 -8.589844 10.390625 -8.90625 9.96875 -9.121094 C 9.507812 -9.332031 8.90625 -9.613281 8.164062 -9.96875 C 7.457031 -10.25 6.964844 -10.460938 6.644531 -10.605469 C 6.328125 -10.746094 5.972656 -10.957031 5.621094 -11.238281 C 5.265625 -11.488281 5.019531 -11.769531 4.878906 -12.089844 C 4.738281 -12.371094 4.664062 -12.761719 4.664062 -13.183594 C 4.664062 -14.03125 4.914062 -14.703125 5.480469 -15.164062 C 6.007812 -15.621094 6.679688 -15.871094 7.527344 -15.871094 C 8.800781 -15.871094 9.753906 -15.304688 10.320312 -14.210938 L 12.371094 -15.269531 C 11.980469 -16.046875 11.347656 -16.71875 10.496094 -17.25 C 9.613281 -17.742188 8.625 -18.027344 7.5625 -18.027344 C 6.148438 -18.027344 4.914062 -17.566406 3.886719 -16.71875 C 2.828125 -15.835938 2.332031 -14.632812 2.332031 -13.113281 C 2.332031 -11.769531 2.722656 -10.710938 3.570312 -9.933594 C 4.382812 -9.15625 5.621094 -8.414062 7.316406 -7.777344 C 8.554688 -7.28125 9.4375 -6.820312 9.96875 -6.398438 C 10.496094 -5.972656 10.78125 -5.40625 10.78125 -4.664062 C 10.78125 -3.78125 10.460938 -3.074219 9.863281 -2.542969 C 9.261719 -2.015625 8.449219 -1.765625 7.457031 -1.765625 C 5.65625 -1.765625 4.417969 -2.542969 3.746094 -4.101562 L 1.519531 -3.394531 C 1.839844 -2.332031 2.582031 -1.449219 3.746094 -0.742188 C 4.914062 0 6.1875 0.351562 7.5625 0.351562 Z M 7.5625 0.351562 "/></g></g></g><g fill="#ffffff" fill-opacity="1"><g transform="translate(237.186701, 214.342954)"><g><path d="M 11.167969 0.351562 C 13.714844 0.351562 15.871094 -0.53125 17.671875 -2.332031 C 19.441406 -4.101562 20.359375 -6.292969 20.359375 -8.835938 C 20.359375 -11.382812 19.441406 -13.539062 17.671875 -15.339844 C 15.871094 -17.109375 13.714844 -18.027344 11.167969 -18.027344 C 8.625 -18.027344 6.46875 -17.109375 4.664062 -15.339844 C 2.863281 -13.539062 1.980469 -11.382812 1.980469 -8.835938 C 1.980469 -6.292969 2.863281 -4.101562 4.664062 -2.332031 C 6.46875 -0.53125 8.625 0.351562 11.167969 0.351562 Z M 11.167969 -1.945312 C 9.261719 -1.945312 7.632812 -2.617188 6.292969 -3.957031 C 4.949219 -5.300781 4.3125 -6.929688 4.3125 -8.835938 C 4.3125 -10.746094 4.949219 -12.371094 6.292969 -13.714844 C 7.632812 -15.058594 9.261719 -15.730469 11.167969 -15.730469 C 13.078125 -15.730469 14.703125 -15.058594 16.046875 -13.714844 C 17.390625 -12.371094 18.0625 -10.746094 18.0625 -8.835938 C 18.0625 -6.929688 17.390625 -5.300781 16.046875 -3.957031 C 14.703125 -2.617188 13.078125 -1.945312 11.167969 -1.945312 Z M 11.167969 -1.945312 "/></g></g></g><g fill="#ffffff" fill-opacity="1"><g transform="translate(259.55885, 214.342954)"><g><path d="M 10.496094 -18.027344 C 8.234375 -18.027344 6.609375 -16.894531 5.585938 -14.632812 L 5.585938 -17.671875 L 3.289062 -17.671875 L 3.289062 0 L 5.585938 0 L 5.585938 -9.898438 C 5.585938 -11.523438 6.042969 -12.902344 7 -14.03125 C 7.953125 -15.164062 9.121094 -15.730469 10.53125 -15.730469 C 11.097656 -15.730469 11.699219 -15.585938 12.335938 -15.304688 L 12.335938 -17.671875 C 11.734375 -17.886719 11.132812 -18.027344 10.496094 -18.027344 Z M 10.496094 -18.027344 "/></g></g></g><g clip-path="url(#id1)"><path fill="#ffffff" d="M 134.382812 188.488281 C 139.300781 188.488281 143.300781 184.484375 143.300781 179.566406 C 143.300781 174.648438 139.300781 170.644531 134.382812 170.644531 C 129.460938 170.644531 125.460938 174.648438 125.460938 179.566406 C 125.460938 184.484375 129.460938 188.488281 134.382812 188.488281 Z M 134.382812 172.015625 C 138.542969 172.015625 141.929688 175.402344 141.929688 179.566406 C 141.929688 183.726562 138.542969 187.113281 134.382812 187.113281 C 130.21875 187.113281 126.832031 183.726562 126.832031 179.566406 C 126.832031 175.402344 130.21875 172.015625 134.382812 172.015625 Z M 134.382812 172.015625 " fill-opacity="1" fill-rule="nonzero"/></g><g clip-path="url(#id2)"><path fill="#ffffff" d="M 143.363281 189.652344 C 143.117188 189.5 142.800781 189.519531 142.574219 189.703125 C 140.226562 191.601562 137.394531 192.605469 134.382812 192.605469 C 131.367188 192.605469 128.535156 191.601562 126.191406 189.703125 C 125.964844 189.519531 125.648438 189.5 125.398438 189.652344 C 120.28125 192.804688 117.222656 198.269531 117.222656 204.273438 C 117.222656 204.652344 117.53125 204.957031 117.910156 204.957031 L 150.851562 204.957031 C 151.230469 204.957031 151.539062 204.652344 151.539062 204.273438 C 151.539062 198.269531 148.480469 192.804688 143.363281 189.652344 Z M 118.609375 203.585938 C 118.828125 198.492188 121.441406 193.886719 125.71875 191.078125 C 128.207031 192.949219 131.265625 193.976562 134.382812 193.976562 C 137.5 193.976562 140.554688 192.949219 143.042969 191.078125 C 147.320312 193.886719 149.933594 198.492188 150.152344 203.585938 Z M 118.609375 203.585938 " fill-opacity="1" fill-rule="nonzero"/></g></svg>