<svg xmlns="http://www.w3.org/2000/svg" xmlns:xlink="http://www.w3.org/1999/xlink" width="500" zoomAndPan="magnify" viewBox="0 0 375 374.999991" height="500" preserveAspectRatio="xMidYMid meet" version="1.0"><defs><g/><clipPath id="id1"><path d="M 116 172.835938 L 137 172.835938 L 137 193 L 116 193 Z M 116 172.835938 " clip-rule="nonzero"/></clipPath><clipPath id="id2"><path d="M 107.855469 193 L 145.289062 193 L 145.289062 210.269531 L 107.855469 210.269531 Z M 107.855469 193 " clip-rule="nonzero"/></clipPath></defs><rect x="-37.5" width="450" fill="#74003e" y="-37.499999" height="449.999989" fill-opacity="1"/><rect x="-37.5" width="450" fill="#ffffff" y="-37.499999" height="449.999989" fill-opacity="1"/><rect x="-37.5" width="450" fill="#74003e" y="-37.499999" height="449.999989" fill-opacity="1"/><path stroke-linecap="round" transform="matrix(0.000000000000000145, -2.372813, 2.167867, 0.000000000000000133, 152.745522, 222.720924)" fill="none" stroke-linejoin="miter" d="M 0.499731 0.000263522 L 19.097444 0.000263522 " stroke="#ffffff" stroke-width="1" stroke-opacity="1" stroke-miterlimit="4"/><path fill="#ffffff" d="M 152.773438 169.363281 C 151.796875 169.363281 151 170.15625 151 171.136719 C 151 172.117188 151.796875 172.910156 152.773438 172.910156 C 153.753906 172.910156 154.546875 172.117188 154.546875 171.136719 C 154.546875 170.15625 153.753906 169.363281 152.773438 169.363281 " fill-opacity="1" fill-rule="nonzero"/><g fill="#ffffff" fill-opacity="1"><g transform="translate(91.792573, 192.858318)"><g><path d="M 13.679688 -29.0625 L 3.605469 -29.0625 L 3.605469 0 L 6.199219 0 L 6.199219 -13.097656 L 13.679688 -13.097656 C 15.886719 -13.097656 17.785156 -13.871094 19.335938 -15.421875 C 20.886719 -16.972656 21.699219 -18.832031 21.699219 -21.042969 C 21.699219 -23.25 20.886719 -25.148438 19.335938 -26.699219 C 17.785156 -28.25 15.886719 -29.0625 13.679688 -29.0625 Z M 13.445312 -15.617188 L 6.199219 -15.617188 L 6.199219 -26.542969 L 13.445312 -26.542969 C 14.996094 -26.542969 16.351562 -26.003906 17.4375 -24.996094 C 18.523438 -23.949219 19.066406 -22.628906 19.066406 -21.042969 C 19.066406 -19.414062 18.523438 -18.097656 17.4375 -17.089844 C 16.351562 -16.082031 15.035156 -15.617188 13.445312 -15.617188 Z M 13.445312 -15.617188 "/></g></g></g><g fill="#ffffff" fill-opacity="1"><g transform="translate(114.382719, 192.858318)"><g><path d="M 12.246094 0.386719 C 15.035156 0.386719 17.398438 -0.582031 19.375 -2.558594 C 21.3125 -4.496094 22.320312 -6.898438 22.320312 -9.6875 C 22.320312 -12.476562 21.3125 -14.84375 19.375 -16.816406 C 17.398438 -18.753906 15.035156 -19.761719 12.246094 -19.761719 C 9.457031 -19.761719 7.089844 -18.753906 5.113281 -16.816406 C 3.140625 -14.84375 2.171875 -12.476562 2.171875 -9.6875 C 2.171875 -6.898438 3.140625 -4.496094 5.113281 -2.558594 C 7.089844 -0.582031 9.457031 0.386719 12.246094 0.386719 Z M 12.246094 -2.132812 C 10.152344 -2.132812 8.371094 -2.867188 6.898438 -4.339844 C 5.425781 -5.8125 4.726562 -7.59375 4.726562 -9.6875 C 4.726562 -11.78125 5.425781 -13.5625 6.898438 -15.035156 C 8.371094 -16.507812 10.152344 -17.246094 12.246094 -17.246094 C 14.339844 -17.246094 16.121094 -16.507812 17.59375 -15.035156 C 19.066406 -13.5625 19.800781 -11.78125 19.800781 -9.6875 C 19.800781 -7.59375 19.066406 -5.8125 17.59375 -4.339844 C 16.121094 -2.867188 14.339844 -2.132812 12.246094 -2.132812 Z M 12.246094 -2.132812 "/></g></g></g><g fill="#ffffff" fill-opacity="1"><g transform="translate(138.910269, 192.858318)"><g><path d="M 3.605469 0 L 6.121094 0 L 6.121094 -29.0625 L 3.605469 -29.0625 Z M 3.605469 0 "/></g></g></g><g fill="#ffffff" fill-opacity="1"><g transform="translate(158.11735, 218.372848)"><g><path d="M 23.484375 0 L 26.351562 0 L 14.6875 -29.0625 L 11.78125 -29.0625 L 0.117188 0 L 2.984375 0 L 5.695312 -6.9375 L 20.769531 -6.9375 Z M 6.703125 -9.457031 L 13.253906 -26.039062 L 19.761719 -9.457031 Z M 6.703125 -9.457031 "/></g></g></g><g fill="#ffffff" fill-opacity="1"><g transform="translate(184.582306, 218.372848)"><g><path d="M 8.292969 0.386719 C 9.996094 0.386719 11.433594 -0.117188 12.59375 -1.164062 C 13.757812 -2.171875 14.375 -3.488281 14.375 -5.078125 C 14.375 -5.890625 14.222656 -6.625 13.910156 -7.285156 C 13.601562 -7.90625 13.175781 -8.488281 12.554688 -8.953125 C 11.933594 -9.417969 11.394531 -9.765625 10.929688 -9.996094 C 10.425781 -10.230469 9.765625 -10.539062 8.953125 -10.929688 C 8.175781 -11.238281 7.632812 -11.46875 7.285156 -11.625 C 6.9375 -11.78125 6.550781 -12.011719 6.160156 -12.324219 C 5.773438 -12.59375 5.503906 -12.902344 5.347656 -13.253906 C 5.191406 -13.5625 5.113281 -13.988281 5.113281 -14.453125 C 5.113281 -15.382812 5.386719 -16.121094 6.007812 -16.625 C 6.585938 -17.128906 7.324219 -17.398438 8.253906 -17.398438 C 9.648438 -17.398438 10.695312 -16.78125 11.316406 -15.578125 L 13.5625 -16.742188 C 13.136719 -17.59375 12.4375 -18.328125 11.507812 -18.910156 C 10.539062 -19.453125 9.457031 -19.761719 8.292969 -19.761719 C 6.742188 -19.761719 5.386719 -19.257812 4.261719 -18.328125 C 3.101562 -17.359375 2.558594 -16.042969 2.558594 -14.375 C 2.558594 -12.902344 2.984375 -11.742188 3.914062 -10.890625 C 4.804688 -10.035156 6.160156 -9.222656 8.023438 -8.523438 C 9.378906 -7.984375 10.347656 -7.480469 10.929688 -7.015625 C 11.507812 -6.550781 11.820312 -5.929688 11.820312 -5.113281 C 11.820312 -4.144531 11.46875 -3.371094 10.8125 -2.789062 C 10.152344 -2.207031 9.261719 -1.9375 8.175781 -1.9375 C 6.199219 -1.9375 4.84375 -2.789062 4.109375 -4.496094 L 1.667969 -3.71875 C 2.015625 -2.558594 2.828125 -1.589844 4.109375 -0.8125 C 5.386719 0 6.78125 0.386719 8.292969 0.386719 Z M 8.292969 0.386719 "/></g></g></g><g fill="#ffffff" fill-opacity="1"><g transform="translate(200.507775, 218.372848)"><g><path d="M 22.320312 -9.921875 C 22.203125 -12.710938 21.195312 -15.035156 19.257812 -16.933594 C 17.320312 -18.792969 14.996094 -19.761719 12.246094 -19.761719 C 9.457031 -19.761719 7.089844 -18.753906 5.113281 -16.816406 C 3.140625 -14.84375 2.171875 -12.476562 2.171875 -9.6875 C 2.171875 -6.898438 3.140625 -4.496094 5.113281 -2.558594 C 7.089844 -0.582031 9.457031 0.386719 12.246094 0.386719 C 14.027344 0.386719 15.695312 -0.0390625 17.207031 -0.929688 C 18.71875 -1.78125 19.917969 -2.984375 20.808594 -4.496094 L 18.484375 -5.503906 C 17.785156 -4.417969 16.855469 -3.605469 15.773438 -3.023438 C 14.6875 -2.402344 13.484375 -2.132812 12.246094 -2.132812 C 10.230469 -2.132812 8.488281 -2.828125 7.015625 -4.222656 C 5.542969 -5.617188 4.804688 -7.324219 4.726562 -9.378906 L 22.28125 -9.378906 Z M 12.246094 -17.246094 C 13.949219 -17.246094 15.5 -16.703125 16.816406 -15.65625 C 18.136719 -14.609375 18.988281 -13.292969 19.453125 -11.703125 L 5 -11.703125 C 5.425781 -13.332031 6.316406 -14.648438 7.671875 -15.695312 C 8.992188 -16.703125 10.539062 -17.246094 12.246094 -17.246094 Z M 12.246094 -17.246094 "/></g></g></g><g fill="#ffffff" fill-opacity="1"><g transform="translate(224.99658, 218.372848)"><g><path d="M 8.292969 0.386719 C 9.996094 0.386719 11.433594 -0.117188 12.59375 -1.164062 C 13.757812 -2.171875 14.375 -3.488281 14.375 -5.078125 C 14.375 -5.890625 14.222656 -6.625 13.910156 -7.285156 C 13.601562 -7.90625 13.175781 -8.488281 12.554688 -8.953125 C 11.933594 -9.417969 11.394531 -9.765625 10.929688 -9.996094 C 10.425781 -10.230469 9.765625 -10.539062 8.953125 -10.929688 C 8.175781 -11.238281 7.632812 -11.46875 7.285156 -11.625 C 6.9375 -11.78125 6.550781 -12.011719 6.160156 -12.324219 C 5.773438 -12.59375 5.503906 -12.902344 5.347656 -13.253906 C 5.191406 -13.5625 5.113281 -13.988281 5.113281 -14.453125 C 5.113281 -15.382812 5.386719 -16.121094 6.007812 -16.625 C 6.585938 -17.128906 7.324219 -17.398438 8.253906 -17.398438 C 9.648438 -17.398438 10.695312 -16.78125 11.316406 -15.578125 L 13.5625 -16.742188 C 13.136719 -17.59375 12.4375 -18.328125 11.507812 -18.910156 C 10.539062 -19.453125 9.457031 -19.761719 8.292969 -19.761719 C 6.742188 -19.761719 5.386719 -19.257812 4.261719 -18.328125 C 3.101562 -17.359375 2.558594 -16.042969 2.558594 -14.375 C 2.558594 -12.902344 2.984375 -11.742188 3.914062 -10.890625 C 4.804688 -10.035156 6.160156 -9.222656 8.023438 -8.523438 C 9.378906 -7.984375 10.347656 -7.480469 10.929688 -7.015625 C 11.507812 -6.550781 11.820312 -5.929688 11.820312 -5.113281 C 11.820312 -4.144531 11.46875 -3.371094 10.8125 -2.789062 C 10.152344 -2.207031 9.261719 -1.9375 8.175781 -1.9375 C 6.199219 -1.9375 4.84375 -2.789062 4.109375 -4.496094 L 1.667969 -3.71875 C 2.015625 -2.558594 2.828125 -1.589844 4.109375 -0.8125 C 5.386719 0 6.78125 0.386719 8.292969 0.386719 Z M 8.292969 0.386719 "/></g></g></g><g fill="#ffffff" fill-opacity="1"><g transform="translate(240.922049, 218.372848)"><g><path d="M 12.246094 0.386719 C 15.035156 0.386719 17.398438 -0.582031 19.375 -2.558594 C 21.3125 -4.496094 22.320312 -6.898438 22.320312 -9.6875 C 22.320312 -12.476562 21.3125 -14.84375 19.375 -16.816406 C 17.398438 -18.753906 15.035156 -19.761719 12.246094 -19.761719 C 9.457031 -19.761719 7.089844 -18.753906 5.113281 -16.816406 C 3.140625 -14.84375 2.171875 -12.476562 2.171875 -9.6875 C 2.171875 -6.898438 3.140625 -4.496094 5.113281 -2.558594 C 7.089844 -0.582031 9.457031 0.386719 12.246094 0.386719 Z M 12.246094 -2.132812 C 10.152344 -2.132812 8.371094 -2.867188 6.898438 -4.339844 C 5.425781 -5.8125 4.726562 -7.59375 4.726562 -9.6875 C 4.726562 -11.78125 5.425781 -13.5625 6.898438 -15.035156 C 8.371094 -16.507812 10.152344 -17.246094 12.246094 -17.246094 C 14.339844 -17.246094 16.121094 -16.507812 17.59375 -15.035156 C 19.066406 -13.5625 19.800781 -11.78125 19.800781 -9.6875 C 19.800781 -7.59375 19.066406 -5.8125 17.59375 -4.339844 C 16.121094 -2.867188 14.339844 -2.132812 12.246094 -2.132812 Z M 12.246094 -2.132812 "/></g></g></g><g fill="#ffffff" fill-opacity="1"><g transform="translate(265.449599, 218.372848)"><g><path d="M 11.507812 -19.761719 C 9.027344 -19.761719 7.246094 -18.523438 6.121094 -16.042969 L 6.121094 -19.375 L 3.605469 -19.375 L 3.605469 0 L 6.121094 0 L 6.121094 -10.851562 C 6.121094 -12.632812 6.625 -14.144531 7.671875 -15.382812 C 8.71875 -16.625 9.996094 -17.246094 11.546875 -17.246094 C 12.167969 -17.246094 12.828125 -17.089844 13.523438 -16.78125 L 13.523438 -19.375 C 12.867188 -19.609375 12.207031 -19.761719 11.507812 -19.761719 Z M 11.507812 -19.761719 "/></g></g></g><g clip-path="url(#id1)"><path fill="#ffffff" d="M 126.574219 192.300781 C 131.9375 192.300781 136.304688 187.933594 136.304688 182.566406 C 136.304688 177.203125 131.9375 172.835938 126.574219 172.835938 C 121.207031 172.835938 116.839844 177.203125 116.839844 182.566406 C 116.839844 187.933594 121.207031 192.300781 126.574219 192.300781 Z M 126.574219 174.332031 C 131.113281 174.332031 134.808594 178.027344 134.808594 182.566406 C 134.808594 187.109375 131.113281 190.804688 126.574219 190.804688 C 122.03125 190.804688 118.335938 187.109375 118.335938 182.566406 C 118.335938 178.027344 122.03125 174.332031 126.574219 174.332031 Z M 126.574219 174.332031 " fill-opacity="1" fill-rule="nonzero"/></g><g clip-path="url(#id2)"><path fill="#ffffff" d="M 136.371094 193.574219 C 136.101562 193.40625 135.757812 193.429688 135.507812 193.628906 C 132.949219 195.699219 129.859375 196.792969 126.574219 196.792969 C 123.285156 196.792969 120.195312 195.699219 117.636719 193.628906 C 117.390625 193.429688 117.042969 193.40625 116.773438 193.574219 C 111.1875 197.011719 107.855469 202.972656 107.855469 209.523438 C 107.855469 209.9375 108.191406 210.269531 108.601562 210.269531 L 144.542969 210.269531 C 144.957031 210.269531 145.289062 209.9375 145.289062 209.523438 C 145.289062 202.972656 141.957031 197.011719 136.371094 193.574219 Z M 109.367188 208.773438 C 109.605469 203.21875 112.457031 198.191406 117.121094 195.125 C 119.835938 197.171875 123.171875 198.292969 126.574219 198.292969 C 129.972656 198.292969 133.308594 197.171875 136.023438 195.125 C 140.6875 198.191406 143.539062 203.21875 143.777344 208.773438 Z M 109.367188 208.773438 " fill-opacity="1" fill-rule="nonzero"/></g></svg>