<svg xmlns="http://www.w3.org/2000/svg" xmlns:xlink="http://www.w3.org/1999/xlink" width="500" zoomAndPan="magnify" viewBox="0 0 375 374.999991" height="500" preserveAspectRatio="xMidYMid meet" version="1.0"><defs><g/><clipPath id="id1"><path d="M 165 185.5625 L 179 185.5625 L 179 199 L 165 199 Z M 165 185.5625 " clip-rule="nonzero"/></clipPath><clipPath id="id2"><path d="M 160.078125 198 L 184.078125 198 L 184.078125 209.5625 L 160.078125 209.5625 Z M 160.078125 198 " clip-rule="nonzero"/></clipPath></defs><rect x="-37.5" width="450" fill="#ffffff" y="-37.499999" height="449.999989" fill-opacity="1"/><rect x="-37.5" width="450" fill="#ffffff" y="-37.499999" height="449.999989" fill-opacity="1"/><rect x="-37.5" width="450" fill="#ffffff" y="-37.499999" height="449.999989" fill-opacity="1"/><path fill="#74003e" d="M 188.726562 183.347656 C 188.105469 183.347656 187.601562 183.851562 187.601562 184.472656 C 187.601562 185.09375 188.105469 185.597656 188.726562 185.597656 C 189.347656 185.597656 189.851562 185.09375 189.851562 184.472656 C 189.851562 183.851562 189.347656 183.347656 188.726562 183.347656 " fill-opacity="1" fill-rule="nonzero"/><g fill="#74003e" fill-opacity="1"><g transform="translate(149.836103, 198.022313)"><g><path d="M 8.726562 -18.539062 L 2.296875 -18.539062 L 2.296875 0 L 3.953125 0 L 3.953125 -8.355469 L 8.726562 -8.355469 C 10.132812 -8.355469 11.34375 -8.847656 12.335938 -9.835938 C 13.324219 -10.828125 13.84375 -12.011719 13.84375 -13.421875 C 13.84375 -14.832031 13.324219 -16.042969 12.335938 -17.03125 C 11.34375 -18.019531 10.132812 -18.539062 8.726562 -18.539062 Z M 8.578125 -9.960938 L 3.953125 -9.960938 L 3.953125 -16.933594 L 8.578125 -16.933594 C 9.566406 -16.933594 10.429688 -16.585938 11.125 -15.941406 C 11.816406 -15.277344 12.160156 -14.433594 12.160156 -13.421875 C 12.160156 -12.382812 11.816406 -11.542969 11.125 -10.902344 C 10.429688 -10.257812 9.589844 -9.960938 8.578125 -9.960938 Z M 8.578125 -9.960938 "/></g></g></g><g fill="#74003e" fill-opacity="1"><g transform="translate(164.245434, 198.022313)"><g><path d="M 7.8125 0.246094 C 9.589844 0.246094 11.097656 -0.371094 12.359375 -1.632812 C 13.59375 -2.867188 14.238281 -4.398438 14.238281 -6.179688 C 14.238281 -7.960938 13.59375 -9.46875 12.359375 -10.726562 C 11.097656 -11.964844 9.589844 -12.605469 7.8125 -12.605469 C 6.03125 -12.605469 4.523438 -11.964844 3.261719 -10.726562 C 2.003906 -9.46875 1.382812 -7.960938 1.382812 -6.179688 C 1.382812 -4.398438 2.003906 -2.867188 3.261719 -1.632812 C 4.523438 -0.371094 6.03125 0.246094 7.8125 0.246094 Z M 7.8125 -1.359375 C 6.476562 -1.359375 5.339844 -1.828125 4.398438 -2.769531 C 3.460938 -3.707031 3.015625 -4.84375 3.015625 -6.179688 C 3.015625 -7.515625 3.460938 -8.652344 4.398438 -9.589844 C 5.339844 -10.53125 6.476562 -11 7.8125 -11 C 9.144531 -11 10.28125 -10.53125 11.222656 -9.589844 C 12.160156 -8.652344 12.632812 -7.515625 12.632812 -6.179688 C 12.632812 -4.84375 12.160156 -3.707031 11.222656 -2.769531 C 10.28125 -1.828125 9.144531 -1.359375 7.8125 -1.359375 Z M 7.8125 -1.359375 "/></g></g></g><g fill="#74003e" fill-opacity="1"><g transform="translate(179.890558, 198.022313)"><g><path d="M 2.296875 0 L 3.90625 0 L 3.90625 -18.539062 L 2.296875 -18.539062 Z M 2.296875 0 "/></g></g></g><g fill="#74003e" fill-opacity="1"><g transform="translate(191.153078, 215.810905)"><g><path d="M 14.980469 0 L 16.808594 0 L 9.367188 -18.539062 L 7.515625 -18.539062 L 0.0742188 0 L 1.902344 0 L 3.632812 -4.425781 L 13.25 -4.425781 Z M 4.277344 -6.03125 L 8.453125 -16.609375 L 12.605469 -6.03125 Z M 4.277344 -6.03125 "/></g></g></g><g fill="#74003e" fill-opacity="1"><g transform="translate(208.033995, 215.810905)"><g><path d="M 5.289062 0.246094 C 6.378906 0.246094 7.292969 -0.0742188 8.035156 -0.742188 C 8.773438 -1.382812 9.171875 -2.226562 9.171875 -3.238281 C 9.171875 -3.757812 9.070312 -4.226562 8.875 -4.648438 C 8.675781 -5.042969 8.402344 -5.414062 8.007812 -5.710938 C 7.613281 -6.007812 7.265625 -6.230469 6.96875 -6.378906 C 6.648438 -6.527344 6.230469 -6.722656 5.710938 -6.96875 C 5.214844 -7.167969 4.871094 -7.316406 4.648438 -7.414062 C 4.425781 -7.515625 4.175781 -7.664062 3.929688 -7.859375 C 3.683594 -8.035156 3.511719 -8.230469 3.410156 -8.453125 C 3.3125 -8.652344 3.261719 -8.921875 3.261719 -9.21875 C 3.261719 -9.8125 3.4375 -10.28125 3.832031 -10.605469 C 4.203125 -10.925781 4.671875 -11.097656 5.265625 -11.097656 C 6.15625 -11.097656 6.820312 -10.703125 7.21875 -9.9375 L 8.652344 -10.679688 C 8.378906 -11.222656 7.933594 -11.691406 7.339844 -12.0625 C 6.722656 -12.410156 6.03125 -12.605469 5.289062 -12.605469 C 4.300781 -12.605469 3.4375 -12.285156 2.71875 -11.691406 C 1.976562 -11.074219 1.632812 -10.234375 1.632812 -9.171875 C 1.632812 -8.230469 1.902344 -7.488281 2.496094 -6.945312 C 3.066406 -6.402344 3.929688 -5.882812 5.117188 -5.4375 C 5.980469 -5.09375 6.601562 -4.769531 6.96875 -4.472656 C 7.339844 -4.175781 7.539062 -3.78125 7.539062 -3.261719 C 7.539062 -2.644531 7.316406 -2.152344 6.894531 -1.78125 C 6.476562 -1.410156 5.90625 -1.234375 5.214844 -1.234375 C 3.953125 -1.234375 3.089844 -1.78125 2.621094 -2.867188 L 1.0625 -2.371094 C 1.285156 -1.632812 1.804688 -1.011719 2.621094 -0.519531 C 3.4375 0 4.324219 0.246094 5.289062 0.246094 Z M 5.289062 0.246094 "/></g></g></g><g fill="#74003e" fill-opacity="1"><g transform="translate(218.192204, 215.810905)"><g><path d="M 14.238281 -6.328125 C 14.164062 -8.109375 13.519531 -9.589844 12.285156 -10.800781 C 11.050781 -11.988281 9.566406 -12.605469 7.8125 -12.605469 C 6.03125 -12.605469 4.523438 -11.964844 3.261719 -10.726562 C 2.003906 -9.46875 1.382812 -7.960938 1.382812 -6.179688 C 1.382812 -4.398438 2.003906 -2.867188 3.261719 -1.632812 C 4.523438 -0.371094 6.03125 0.246094 7.8125 0.246094 C 8.949219 0.246094 10.011719 -0.0234375 10.976562 -0.59375 C 11.9375 -1.136719 12.703125 -1.902344 13.273438 -2.867188 L 11.789062 -3.511719 C 11.34375 -2.816406 10.753906 -2.296875 10.058594 -1.929688 C 9.367188 -1.53125 8.601562 -1.359375 7.8125 -1.359375 C 6.527344 -1.359375 5.414062 -1.804688 4.472656 -2.695312 C 3.535156 -3.585938 3.066406 -4.671875 3.015625 -5.980469 L 14.210938 -5.980469 Z M 7.8125 -11 C 8.898438 -11 9.886719 -10.652344 10.726562 -9.984375 C 11.566406 -9.320312 12.113281 -8.476562 12.410156 -7.464844 L 3.1875 -7.464844 C 3.460938 -8.503906 4.027344 -9.34375 4.894531 -10.011719 C 5.734375 -10.652344 6.722656 -11 7.8125 -11 Z M 7.8125 -11 "/></g></g></g><g fill="#74003e" fill-opacity="1"><g transform="translate(233.81261, 215.810905)"><g><path d="M 5.289062 0.246094 C 6.378906 0.246094 7.292969 -0.0742188 8.035156 -0.742188 C 8.773438 -1.382812 9.171875 -2.226562 9.171875 -3.238281 C 9.171875 -3.757812 9.070312 -4.226562 8.875 -4.648438 C 8.675781 -5.042969 8.402344 -5.414062 8.007812 -5.710938 C 7.613281 -6.007812 7.265625 -6.230469 6.96875 -6.378906 C 6.648438 -6.527344 6.230469 -6.722656 5.710938 -6.96875 C 5.214844 -7.167969 4.871094 -7.316406 4.648438 -7.414062 C 4.425781 -7.515625 4.175781 -7.664062 3.929688 -7.859375 C 3.683594 -8.035156 3.511719 -8.230469 3.410156 -8.453125 C 3.3125 -8.652344 3.261719 -8.921875 3.261719 -9.21875 C 3.261719 -9.8125 3.4375 -10.28125 3.832031 -10.605469 C 4.203125 -10.925781 4.671875 -11.097656 5.265625 -11.097656 C 6.15625 -11.097656 6.820312 -10.703125 7.21875 -9.9375 L 8.652344 -10.679688 C 8.378906 -11.222656 7.933594 -11.691406 7.339844 -12.0625 C 6.722656 -12.410156 6.03125 -12.605469 5.289062 -12.605469 C 4.300781 -12.605469 3.4375 -12.285156 2.71875 -11.691406 C 1.976562 -11.074219 1.632812 -10.234375 1.632812 -9.171875 C 1.632812 -8.230469 1.902344 -7.488281 2.496094 -6.945312 C 3.066406 -6.402344 3.929688 -5.882812 5.117188 -5.4375 C 5.980469 -5.09375 6.601562 -4.769531 6.96875 -4.472656 C 7.339844 -4.175781 7.539062 -3.78125 7.539062 -3.261719 C 7.539062 -2.644531 7.316406 -2.152344 6.894531 -1.78125 C 6.476562 -1.410156 5.90625 -1.234375 5.214844 -1.234375 C 3.953125 -1.234375 3.089844 -1.78125 2.621094 -2.867188 L 1.0625 -2.371094 C 1.285156 -1.632812 1.804688 -1.011719 2.621094 -0.519531 C 3.4375 0 4.324219 0.246094 5.289062 0.246094 Z M 5.289062 0.246094 "/></g></g></g><g fill="#74003e" fill-opacity="1"><g transform="translate(243.970819, 215.810905)"><g><path d="M 7.8125 0.246094 C 9.589844 0.246094 11.097656 -0.371094 12.359375 -1.632812 C 13.59375 -2.867188 14.238281 -4.398438 14.238281 -6.179688 C 14.238281 -7.960938 13.59375 -9.46875 12.359375 -10.726562 C 11.097656 -11.964844 9.589844 -12.605469 7.8125 -12.605469 C 6.03125 -12.605469 4.523438 -11.964844 3.261719 -10.726562 C 2.003906 -9.46875 1.382812 -7.960938 1.382812 -6.179688 C 1.382812 -4.398438 2.003906 -2.867188 3.261719 -1.632812 C 4.523438 -0.371094 6.03125 0.246094 7.8125 0.246094 Z M 7.8125 -1.359375 C 6.476562 -1.359375 5.339844 -1.828125 4.398438 -2.769531 C 3.460938 -3.707031 3.015625 -4.84375 3.015625 -6.179688 C 3.015625 -7.515625 3.460938 -8.652344 4.398438 -9.589844 C 5.339844 -10.53125 6.476562 -11 7.8125 -11 C 9.144531 -11 10.28125 -10.53125 11.222656 -9.589844 C 12.160156 -8.652344 12.632812 -7.515625 12.632812 -6.179688 C 12.632812 -4.84375 12.160156 -3.707031 11.222656 -2.769531 C 10.28125 -1.828125 9.144531 -1.359375 7.8125 -1.359375 Z M 7.8125 -1.359375 "/></g></g></g><g fill="#74003e" fill-opacity="1"><g transform="translate(259.615943, 215.810905)"><g><path d="M 7.339844 -12.605469 C 5.757812 -12.605469 4.621094 -11.816406 3.90625 -10.234375 L 3.90625 -12.359375 L 2.296875 -12.359375 L 2.296875 0 L 3.90625 0 L 3.90625 -6.921875 C 3.90625 -8.058594 4.226562 -9.023438 4.894531 -9.8125 C 5.5625 -10.605469 6.378906 -11 7.367188 -11 C 7.761719 -11 8.183594 -10.902344 8.625 -10.703125 L 8.625 -12.359375 C 8.207031 -12.507812 7.785156 -12.605469 7.339844 -12.605469 Z M 7.339844 -12.605469 "/></g></g></g><g clip-path="url(#id1)"><path fill="#74003e" d="M 172.078125 198.042969 C 175.519531 198.042969 178.316406 195.242188 178.316406 191.800781 C 178.316406 188.359375 175.519531 185.5625 172.078125 185.5625 C 168.636719 185.5625 165.835938 188.359375 165.835938 191.800781 C 165.835938 195.242188 168.636719 198.042969 172.078125 198.042969 Z M 172.078125 186.519531 C 174.988281 186.519531 177.355469 188.890625 177.355469 191.800781 C 177.355469 194.710938 174.988281 197.082031 172.078125 197.082031 C 169.164062 197.082031 166.796875 194.710938 166.796875 191.800781 C 166.796875 188.890625 169.164062 186.519531 172.078125 186.519531 Z M 172.078125 186.519531 " fill-opacity="1" fill-rule="nonzero"/></g><g clip-path="url(#id2)"><path fill="#74003e" d="M 178.359375 198.855469 C 178.1875 198.75 177.964844 198.765625 177.804688 198.890625 C 176.164062 200.21875 174.183594 200.921875 172.078125 200.921875 C 169.96875 200.921875 167.988281 200.21875 166.347656 198.890625 C 166.191406 198.765625 165.96875 198.75 165.792969 198.855469 C 162.214844 201.0625 160.078125 204.882812 160.078125 209.082031 C 160.078125 209.347656 160.292969 209.5625 160.558594 209.5625 L 183.597656 209.5625 C 183.863281 209.5625 184.078125 209.347656 184.078125 209.082031 C 184.078125 204.882812 181.941406 201.0625 178.359375 198.855469 Z M 161.046875 208.601562 C 161.199219 205.039062 163.027344 201.816406 166.019531 199.851562 C 167.757812 201.164062 169.898438 201.882812 172.078125 201.882812 C 174.257812 201.882812 176.394531 201.164062 178.136719 199.851562 C 181.128906 201.816406 182.957031 205.039062 183.105469 208.601562 Z M 161.046875 208.601562 " fill-opacity="1" fill-rule="nonzero"/></g></svg>