<svg xmlns="http://www.w3.org/2000/svg" xmlns:xlink="http://www.w3.org/1999/xlink" width="500" zoomAndPan="magnify" viewBox="0 0 375 374.999991" height="500" preserveAspectRatio="xMidYMid meet" version="1.0"><defs><g/></defs><rect x="-37.5" width="450" fill="#ffffff" y="-37.499999" height="449.999989" fill-opacity="1"/><rect x="-37.5" width="450" fill="#ffffff" y="-37.499999" height="449.999989" fill-opacity="1"/><rect x="-37.5" width="450" fill="#ffffff" y="-37.499999" height="449.999989" fill-opacity="1"/><path stroke-linecap="round" transform="matrix(0.00000000000000012, -1.956168, 1.960788, 0.00000000000000012, 158.15938, 216.144831)" fill="none" stroke-linejoin="miter" d="M 0.499375 0.000396032 L 21.055351 0.000396032 " stroke="#000000" stroke-width="1" stroke-opacity="1" stroke-miterlimit="4"/><path fill="#000000" d="M 158.050781 167.476562 C 157.238281 167.476562 156.578125 168.136719 156.578125 168.949219 C 156.578125 169.761719 157.238281 170.417969 158.050781 170.417969 C 158.863281 170.417969 159.519531 169.761719 159.519531 168.949219 C 159.519531 168.136719 158.863281 167.476562 158.050781 167.476562 " fill-opacity="1" fill-rule="nonzero"/><g fill="#000000" fill-opacity="1"><g transform="translate(102.581223, 188.461659)"><g><path d="M 12.476562 -26.507812 L 3.285156 -26.507812 L 3.285156 0 L 5.65625 0 L 5.65625 -11.945312 L 12.476562 -11.945312 C 14.492188 -11.945312 16.222656 -12.652344 17.636719 -14.066406 C 19.050781 -15.480469 19.792969 -17.175781 19.792969 -19.191406 C 19.792969 -21.207031 19.050781 -22.9375 17.636719 -24.351562 C 16.222656 -25.765625 14.492188 -26.507812 12.476562 -26.507812 Z M 12.265625 -14.242188 L 5.65625 -14.242188 L 5.65625 -24.210938 L 12.265625 -24.210938 C 13.679688 -24.210938 14.914062 -23.714844 15.90625 -22.796875 C 16.894531 -21.84375 17.390625 -20.640625 17.390625 -19.191406 C 17.390625 -17.707031 16.894531 -16.503906 15.90625 -15.585938 C 14.914062 -14.667969 13.714844 -14.242188 12.265625 -14.242188 Z M 12.265625 -14.242188 "/></g></g></g><g fill="#000000" fill-opacity="1"><g transform="translate(123.18452, 188.461659)"><g><path d="M 11.167969 0.351562 C 13.714844 0.351562 15.867188 -0.53125 17.671875 -2.332031 C 19.4375 -4.101562 20.359375 -6.292969 20.359375 -8.835938 C 20.359375 -11.378906 19.4375 -13.535156 17.671875 -15.339844 C 15.867188 -17.105469 13.714844 -18.023438 11.167969 -18.023438 C 8.625 -18.023438 6.46875 -17.105469 4.664062 -15.339844 C 2.863281 -13.535156 1.980469 -11.378906 1.980469 -8.835938 C 1.980469 -6.292969 2.863281 -4.101562 4.664062 -2.332031 C 6.46875 -0.53125 8.625 0.351562 11.167969 0.351562 Z M 11.167969 -1.945312 C 9.261719 -1.945312 7.632812 -2.617188 6.292969 -3.957031 C 4.949219 -5.300781 4.3125 -6.925781 4.3125 -8.835938 C 4.3125 -10.746094 4.949219 -12.371094 6.292969 -13.714844 C 7.632812 -15.054688 9.261719 -15.726562 11.167969 -15.726562 C 13.078125 -15.726562 14.703125 -15.054688 16.046875 -13.714844 C 17.390625 -12.371094 18.058594 -10.746094 18.058594 -8.835938 C 18.058594 -6.925781 17.390625 -5.300781 16.046875 -3.957031 C 14.703125 -2.617188 13.078125 -1.945312 11.167969 -1.945312 Z M 11.167969 -1.945312 "/></g></g></g><g fill="#000000" fill-opacity="1"><g transform="translate(145.554825, 188.461659)"><g><path d="M 3.285156 0 L 5.585938 0 L 5.585938 -26.507812 L 3.285156 -26.507812 Z M 3.285156 0 "/></g></g></g><g fill="#000000" fill-opacity="1"><g transform="translate(161.658613, 213.897439)"><g><path d="M 21.417969 0 L 24.035156 0 L 13.394531 -26.507812 L 10.746094 -26.507812 L 0.105469 0 L 2.722656 0 L 5.195312 -6.328125 L 18.945312 -6.328125 Z M 6.113281 -8.625 L 12.085938 -23.75 L 18.023438 -8.625 Z M 6.113281 -8.625 "/></g></g></g><g fill="#000000" fill-opacity="1"><g transform="translate(185.795927, 213.897439)"><g><path d="M 7.5625 0.351562 C 9.117188 0.351562 10.425781 -0.105469 11.488281 -1.058594 C 12.546875 -1.980469 13.113281 -3.179688 13.113281 -4.628906 C 13.113281 -5.371094 12.972656 -6.042969 12.6875 -6.644531 C 12.40625 -7.210938 12.015625 -7.738281 11.453125 -8.164062 C 10.886719 -8.589844 10.390625 -8.90625 9.964844 -9.117188 C 9.507812 -9.332031 8.90625 -9.613281 8.164062 -9.964844 C 7.457031 -10.25 6.960938 -10.460938 6.644531 -10.601562 C 6.328125 -10.746094 5.972656 -10.957031 5.621094 -11.238281 C 5.265625 -11.488281 5.019531 -11.769531 4.878906 -12.085938 C 4.734375 -12.371094 4.664062 -12.757812 4.664062 -13.183594 C 4.664062 -14.03125 4.914062 -14.703125 5.476562 -15.164062 C 6.007812 -15.621094 6.679688 -15.867188 7.527344 -15.867188 C 8.800781 -15.867188 9.753906 -15.304688 10.320312 -14.207031 L 12.371094 -15.269531 C 11.980469 -16.046875 11.34375 -16.71875 10.496094 -17.246094 C 9.613281 -17.742188 8.625 -18.023438 7.5625 -18.023438 C 6.148438 -18.023438 4.914062 -17.566406 3.886719 -16.71875 C 2.828125 -15.832031 2.332031 -14.632812 2.332031 -13.113281 C 2.332031 -11.769531 2.722656 -10.710938 3.570312 -9.929688 C 4.382812 -9.152344 5.621094 -8.410156 7.316406 -7.777344 C 8.554688 -7.28125 9.4375 -6.820312 9.964844 -6.398438 C 10.496094 -5.972656 10.78125 -5.40625 10.78125 -4.664062 C 10.78125 -3.78125 10.460938 -3.074219 9.859375 -2.542969 C 9.261719 -2.015625 8.445312 -1.765625 7.457031 -1.765625 C 5.65625 -1.765625 4.417969 -2.542969 3.746094 -4.101562 L 1.519531 -3.394531 C 1.835938 -2.332031 2.578125 -1.449219 3.746094 -0.742188 C 4.914062 0 6.183594 0.351562 7.5625 0.351562 Z M 7.5625 0.351562 "/></g></g></g><g fill="#000000" fill-opacity="1"><g transform="translate(200.320723, 213.897439)"><g><path d="M 20.359375 -9.046875 C 20.25 -11.59375 19.332031 -13.714844 17.566406 -15.445312 C 15.796875 -17.140625 13.679688 -18.023438 11.167969 -18.023438 C 8.625 -18.023438 6.46875 -17.105469 4.664062 -15.339844 C 2.863281 -13.535156 1.980469 -11.378906 1.980469 -8.835938 C 1.980469 -6.292969 2.863281 -4.101562 4.664062 -2.332031 C 6.46875 -0.53125 8.625 0.351562 11.167969 0.351562 C 12.792969 0.351562 14.3125 -0.0351562 15.691406 -0.847656 C 17.070312 -1.625 18.167969 -2.722656 18.980469 -4.101562 L 16.859375 -5.019531 C 16.222656 -4.027344 15.375 -3.285156 14.382812 -2.757812 C 13.394531 -2.191406 12.300781 -1.945312 11.167969 -1.945312 C 9.332031 -1.945312 7.738281 -2.578125 6.398438 -3.851562 C 5.054688 -5.125 4.382812 -6.679688 4.3125 -8.554688 L 20.324219 -8.554688 Z M 11.167969 -15.726562 C 12.722656 -15.726562 14.136719 -15.234375 15.339844 -14.277344 C 16.539062 -13.324219 17.316406 -12.121094 17.742188 -10.671875 L 4.558594 -10.671875 C 4.949219 -12.15625 5.761719 -13.359375 6.996094 -14.3125 C 8.199219 -15.234375 9.613281 -15.726562 11.167969 -15.726562 Z M 11.167969 -15.726562 "/></g></g></g><g fill="#000000" fill-opacity="1"><g transform="translate(222.655685, 213.897439)"><g><path d="M 7.5625 0.351562 C 9.117188 0.351562 10.425781 -0.105469 11.488281 -1.058594 C 12.546875 -1.980469 13.113281 -3.179688 13.113281 -4.628906 C 13.113281 -5.371094 12.972656 -6.042969 12.6875 -6.644531 C 12.40625 -7.210938 12.015625 -7.738281 11.453125 -8.164062 C 10.886719 -8.589844 10.390625 -8.90625 9.964844 -9.117188 C 9.507812 -9.332031 8.90625 -9.613281 8.164062 -9.964844 C 7.457031 -10.25 6.960938 -10.460938 6.644531 -10.601562 C 6.328125 -10.746094 5.972656 -10.957031 5.621094 -11.238281 C 5.265625 -11.488281 5.019531 -11.769531 4.878906 -12.085938 C 4.734375 -12.371094 4.664062 -12.757812 4.664062 -13.183594 C 4.664062 -14.03125 4.914062 -14.703125 5.476562 -15.164062 C 6.007812 -15.621094 6.679688 -15.867188 7.527344 -15.867188 C 8.800781 -15.867188 9.753906 -15.304688 10.320312 -14.207031 L 12.371094 -15.269531 C 11.980469 -16.046875 11.34375 -16.71875 10.496094 -17.246094 C 9.613281 -17.742188 8.625 -18.023438 7.5625 -18.023438 C 6.148438 -18.023438 4.914062 -17.566406 3.886719 -16.71875 C 2.828125 -15.832031 2.332031 -14.632812 2.332031 -13.113281 C 2.332031 -11.769531 2.722656 -10.710938 3.570312 -9.929688 C 4.382812 -9.152344 5.621094 -8.410156 7.316406 -7.777344 C 8.554688 -7.28125 9.4375 -6.820312 9.964844 -6.398438 C 10.496094 -5.972656 10.78125 -5.40625 10.78125 -4.664062 C 10.78125 -3.78125 10.460938 -3.074219 9.859375 -2.542969 C 9.261719 -2.015625 8.445312 -1.765625 7.457031 -1.765625 C 5.65625 -1.765625 4.417969 -2.542969 3.746094 -4.101562 L 1.519531 -3.394531 C 1.835938 -2.332031 2.578125 -1.449219 3.746094 -0.742188 C 4.914062 0 6.183594 0.351562 7.5625 0.351562 Z M 7.5625 0.351562 "/></g></g></g><g fill="#000000" fill-opacity="1"><g transform="translate(237.180481, 213.897439)"><g><path d="M 11.167969 0.351562 C 13.714844 0.351562 15.867188 -0.53125 17.671875 -2.332031 C 19.4375 -4.101562 20.359375 -6.292969 20.359375 -8.835938 C 20.359375 -11.378906 19.4375 -13.535156 17.671875 -15.339844 C 15.867188 -17.105469 13.714844 -18.023438 11.167969 -18.023438 C 8.625 -18.023438 6.46875 -17.105469 4.664062 -15.339844 C 2.863281 -13.535156 1.980469 -11.378906 1.980469 -8.835938 C 1.980469 -6.292969 2.863281 -4.101562 4.664062 -2.332031 C 6.46875 -0.53125 8.625 0.351562 11.167969 0.351562 Z M 11.167969 -1.945312 C 9.261719 -1.945312 7.632812 -2.617188 6.292969 -3.957031 C 4.949219 -5.300781 4.3125 -6.925781 4.3125 -8.835938 C 4.3125 -10.746094 4.949219 -12.371094 6.292969 -13.714844 C 7.632812 -15.054688 9.261719 -15.726562 11.167969 -15.726562 C 13.078125 -15.726562 14.703125 -15.054688 16.046875 -13.714844 C 17.390625 -12.371094 18.058594 -10.746094 18.058594 -8.835938 C 18.058594 -6.925781 17.390625 -5.300781 16.046875 -3.957031 C 14.703125 -2.617188 13.078125 -1.945312 11.167969 -1.945312 Z M 11.167969 -1.945312 "/></g></g></g><g fill="#000000" fill-opacity="1"><g transform="translate(259.550786, 213.897439)"><g><path d="M 10.496094 -18.023438 C 8.234375 -18.023438 6.609375 -16.894531 5.585938 -14.632812 L 5.585938 -17.671875 L 3.285156 -17.671875 L 3.285156 0 L 5.585938 0 L 5.585938 -9.894531 C 5.585938 -11.523438 6.042969 -12.898438 6.996094 -14.03125 C 7.953125 -15.164062 9.117188 -15.726562 10.53125 -15.726562 C 11.097656 -15.726562 11.699219 -15.585938 12.335938 -15.304688 L 12.335938 -17.671875 C 11.734375 -17.882812 11.132812 -18.023438 10.496094 -18.023438 Z M 10.496094 -18.023438 "/></g></g></g></svg>